<?xml version="1.0" encoding="utf-8"?>
<!-- Svg Vector Icons : http://www.onlinewebfonts.com/icon -->
<!DOCTYPE svg PUBLIC "-//W3C//DTD SVG 1.1//EN" "http://www.w3.org/Graphics/SVG/1.1/DTD/svg11.dtd">
<svg version="1.1" xmlns="http://www.w3.org/2000/svg" xmlns:xlink="http://www.w3.org/1999/xlink" x="0px" y="0px" viewBox="0 0 1000 1000" enable-background="new 0 0 1000 1000" xml:space="preserve">
<metadata> Svg Vector Icons : http://www.onlinewebfonts.com/icon </metadata>
<g><path id="Grooveshark" d="M500,10C229.4,10,10,229.4,10,500c0,270.6,219.4,490,490,490c270.6,0,490-219.4,490-490C990,229.4,770.6,10,500,10z M763.9,650.8c-37.7,0-75.4-75.4-75.4-75.4S634.9,386.9,387,349.2c21.8,339.2-103.6,298.4-150.9,301.5c-47.1,3.1-74.4-65.3-74.4-150.8c0-186.8,151.5-338.3,338.3-338.3c186.9,0,333.9,151.5,338.3,338.3C839.2,537.7,801.5,650.8,763.9,650.8z"/></g>
</svg>